# xmcd
#
# Track frame offsets: 
#        150
#        15575
#        34210
#        44090
#        58900
#        74947
#        90830
#        103632
#
# Disc length: 1548 seconds
#
# Revision: 1
# Processed by: cddbd v1.5.2PL0 Copyright (c) Steve Scherf et al.
# Submitted via: ExactAudioCopy v0.99pb3
#
DISCID=6f060a08
DTITLE=Various Artist - All-Star Country Christmas
DYEAR=1994
DGENRE=Country
TTITLE0=Randy Travis - White Christmas Makes Me Blue
TTITLE1=Tanya Tucker - What Child Is This
TTITLE2=Geroge Strait - Santa Claus Is Coming To Town
TTITLE3=Pirates Of The Mississippi - Dancing Snowman
TTITLE4=Alabama - Christmas In Dixie
TTITLE5=Billy Dean - I Still Believe In Christmas
TTITLE6=Suzy Bogguss - I Heard The Bells On Christmas Day
TTITLE7=Steve Wagner - Let It Snow! Let It Snow! Let It Snow!
EXTD=
EXTT0=
EXTT1=
EXTT2=
EXTT3=
EXTT4=
EXTT5=
EXTT6=
EXTT7=
PLAYORDER=
